<?xml version="1.0" encoding="UTF-8" standalone="no"?>
<svg width="122px" height="28px" viewBox="0 0 122 28" version="1.1" xmlns="http://www.w3.org/2000/svg" xmlns:xlink="http://www.w3.org/1999/xlink" xmlns:sketch="http://www.bohemiancoding.com/sketch/ns">
    <!-- Generator: Sketch 3.3.2 (12043) - http://www.bohemiancoding.com/sketch -->
    <title>Group Copy 21</title>
    <desc>Created with Sketch.</desc>
    <defs></defs>
    <g id="Page-1" stroke="none" stroke-width="1" fill="none" fill-rule="evenodd" sketch:type="MSPage">
        <g id="Desktop-HD" sketch:type="MSArtboardGroup" transform="translate(-250.000000, -26.000000)" fill="#FFFFFF">
            <g id="Group-Copy-21" sketch:type="MSLayerGroup" transform="translate(250.000000, 26.000000)">
                <path d="M11.7539814,21.2744 C11.057743,20.0676 9.43273083,16.6726 8.86780655,15.351 C8.61612115,14.7966 8.49711773,14.3416 8.49711773,14.112 C8.49711773,13.7018 9.26448461,13.5436 10.5735222,13.5436 C11.2998534,13.5436 11.946849,13.58 12.5090376,13.6934 C13.3256473,13.8404 14.0205178,15.0444 14.0205178,15.6506 C14.0205178,15.9572 14.0205178,16.2876 13.8974108,16.779 C13.6990718,17.5378 12.3189057,20.2538 11.7539814,21.2744 M29.4348803,12.005 C28.54851,12.0848 27.4938935,12.1226 26.31617,12.1296 C25.2916463,12.1296 24.3286761,12.089 22.9854421,12.0162 C22.5791891,12.1758 22.5791891,13.0662 22.825403,13.342 L23.5093307,13.4918 C24.2055691,13.636 24.5338544,13.8236 24.5338544,14.0112 C24.5338544,14.2814 24.4134831,14.812 24.1659013,15.484 C23.5189057,17.2284 22.8760137,19.075 21.9062042,21.2576 C21.0006839,19.4446 19.8722032,17.003 19.1308256,15.1886 C18.8887152,14.5474 18.8134831,14.3276 18.8134831,14.021 C18.8134831,13.8292 19.3715681,13.6402 20.3167562,13.447 L20.9227162,13.342 C21.199023,13.188 21.2400586,12.0582 20.7941378,12.0162 C18.1883732,12.0988 16.1694187,12.1394 13.6046898,12.1394 L5.40713239,12.1506 C3.70552027,12.1506 2.40468979,12.1156 0.742745481,12.04 C0.333756717,12.2444 0.333756717,13.0662 0.610063508,13.37 L1.35144113,13.552 C2.0394724,13.7424 2.45256473,13.8922 3.02022472,14.9884 C5.0049829,18.907 7.00341964,23.24 8.96218857,27.4946 C9.20840254,27.7214 9.48334148,27.7662 9.89506595,27.7662 C10.3026869,27.7564 10.5858329,27.7214 10.8279433,27.4918 C11.7635564,25.6144 14.1914998,20.5898 15.2365413,18.6354 C16.4553004,21.0364 18.5754763,25.4506 19.4317538,27.4876 C19.6670249,27.6976 19.9323889,27.7466 20.309917,27.7466 L20.3646312,27.7466 C20.7722521,27.7466 21.056766,27.7074 21.3043478,27.4806 C23.0018564,23.4794 24.8621397,19.3284 26.7237909,15.484 C27.3735222,14.0882 27.6566683,13.7074 28.9903273,13.4428 L29.5620909,13.335 C29.891744,12.9864 29.8000977,12.1674 29.4348803,12.005" id="Fill-2" sketch:type="MSShapeGroup"></path>
                <path d="M33.268979,16.0692 C32.9010259,16.0692 32.7327797,16.0048 32.7327797,15.7136 C32.7327797,14.5152 34.1950171,13.258 35.8966292,13.251 C37.2713239,13.251 38.0537372,14.007 38.055105,15.2488 C38.055105,15.6254 37.970298,15.8564 37.771959,15.9712 C37.5996092,16.0734 37.3957987,16.1042 37.1783097,16.1042 C36.8308745,16.1042 36.4492428,16.0258 36.1059111,16.0258 L34.6012702,16.0258 C34.0089888,16.0258 33.571275,16.0692 33.268979,16.0692 M36.1989253,11.5892 L36.1756717,11.5892 C31.1009282,11.5934 27.4186615,15.2894 27.4186615,20.0452 C27.4309722,24.15 30.3787005,27.7242 35.8460186,27.7242 C35.8542257,27.7242 35.8651685,27.7242 35.8733757,27.7228 C38.3067904,27.7214 41.3147044,26.628 42.9684416,23.4178 C42.9684416,22.841 42.4773815,22.5372 42.0560821,22.5372 C42.0082071,22.5372 41.9617,22.5414 41.9165608,22.5498 C40.8277479,24.2914 39.2793356,24.514 38.1440156,24.514 L38.1358085,24.514 C34.3646312,24.514 32.4072301,21.7686 32.4072301,18.9448 C32.4072301,18.34 32.4947728,18.263 33.4262824,18.263 L41.2134831,18.2518 C42.4842208,18.249 42.6757206,17.717 42.6757206,17.0114 C42.671617,14.1106 40.4132877,11.5892 36.1989253,11.5892" id="Fill-3" sketch:type="MSShapeGroup"></path>
                <path d="M54.0945774,21.217 C53.4010747,20.0074 51.7705911,16.6166 51.2097704,15.2936 C50.9649243,14.742 50.8308745,14.2814 50.8308745,14.056 C50.8308745,13.6402 51.5968735,13.4918 52.9059111,13.4918 L53.0235467,13.4918 C53.7047386,13.4918 54.3134343,13.531 54.8523693,13.636 C55.6662433,13.7788 56.3570103,14.9968 56.3570103,15.5918 C56.3570103,15.8998 56.3570103,16.2372 56.2311676,16.7272 C56.0396678,17.486 54.6622374,20.1992 54.0945774,21.217 M71.7754763,11.9532 C70.8850024,12.026 69.8317538,12.0638 68.6581339,12.0638 C68.5979482,12.0638 68.5377626,12.0652 68.4789448,12.0652 C67.5187103,12.0652 66.5872008,12.0288 65.3233024,11.9588 C64.9197851,12.1156 64.9197851,13.013 65.1632633,13.286 L65.8526624,13.4316 C66.5420616,13.58 66.8771861,13.7606 66.8771861,13.958 C66.8771861,14.2226 66.7445042,14.7462 66.5010259,15.4238 C65.8581339,17.1654 65.2111383,19.012 64.2399609,21.203 C63.3440156,19.3942 62.2032242,16.9498 61.467318,15.1298 C61.2293112,14.4872 61.1445042,14.2716 61.1445042,13.965 C61.1445042,13.7746 61.7094284,13.5884 62.6477772,13.398 L63.2496336,13.2874 C63.5368832,13.1222 63.5779189,12.005 63.1347338,11.963 C60.5412799,12.04 58.5018075,12.0806 55.9493894,12.0848 L47.7545677,12.0988 C46.0433806,12.0988 44.7425501,12.0638 43.0792379,11.9938 C42.6702491,12.1758 42.671617,13.013 42.9616023,13.314 L43.6865657,13.4988 C44.3800684,13.6892 44.7849536,13.839 45.3539814,14.9268 C47.3401075,18.8468 49.3467513,23.1812 51.298681,27.4386 C51.5435271,27.6654 51.8239375,27.7074 52.2383977,27.7074 C52.641915,27.7074 52.9209575,27.6654 53.1644358,27.4386 C54.0973131,25.5556 56.5211529,20.531 57.5785051,18.5696 C58.7958964,20.9818 60.9201759,25.3918 61.7709819,27.4246 C62.0117245,27.6542 62.3071812,27.6934 62.7024915,27.6934 C63.1114802,27.6934 63.397362,27.6542 63.6394724,27.4246 C65.3397167,23.4318 67.2041036,19.2738 69.0657548,15.4238 C69.7154861,14.028 69.9972643,13.6486 71.3377626,13.3938 L71.9081583,13.272 C72.2255007,12.9346 72.1502687,12.11 71.7754763,11.9532" id="Fill-4" sketch:type="MSShapeGroup"></path>
                <path d="M79.4067416,25.935 C77.0595017,25.935 75.713532,23.0258 75.703957,19.075 C75.7012213,14.9716 77.1497802,13.2692 78.9526136,13.258 C81.2629213,13.258 82.4023449,16.4276 82.4379091,20.0844 C82.4939912,23.4794 81.7156815,25.928 79.4094773,25.935 L79.4067416,25.935 M79.1892526,11.5318 L79.1837811,11.5318 C74.4003908,11.5318 69.8139717,14.5194 69.857743,19.9136 C69.9028823,25.109 74.1158769,27.6724 78.9444064,27.6724 L78.9635564,27.6724 C83.9562286,27.6654 88.2991695,25.06 88.2923302,19.5468 C88.2868588,14.2338 83.9767465,11.5318 79.1892526,11.5318" id="Fill-5" sketch:type="MSShapeGroup"></path>
                <path d="M93.866341,10.9872 C92.6010747,11.7362 89.8243283,12.754 87.9572057,13.2482 C87.6672203,13.482 87.7137274,14.1498 88.000977,14.3864 L88.6712262,14.7182 C89.4426966,15.1704 89.6246214,15.6268 89.6246214,17.1374 L89.6246214,22.8312 C89.6246214,25.4688 89.2908647,25.8062 87.9503664,25.9252 L86.9956033,25.998 C86.667318,26.2276 86.676893,27.097 87.0311676,27.3182 C88.3785051,27.237 90.158085,27.2034 91.8309722,27.195 C93.7391304,27.195 95.3531998,27.2314 97.309233,27.3042 C97.6744504,27.0802 97.6662433,26.2094 97.3461651,25.984 L96.0508061,25.8748 C94.7103078,25.7698 94.5461651,25.4604 94.5365901,22.8228 L94.5297509,17.0142 C94.5270151,15.5806 94.7280899,14.7518 95.3066927,14.7462 C95.5446996,14.7462 95.9071812,14.7868 96.8468979,15.5008 C97.3707865,15.9572 97.8632145,16.1798 98.4322423,16.1798 C99.7262335,16.1798 101.0298,15.4588 101.02296,13.7214 C101.02296,12.2976 99.8862726,11.5038 98.7865169,11.5038 C97.0780655,11.5066 95.9085491,12.7498 94.8142648,13.398 C94.4955545,13.3224 94.4107474,13.2062 94.4107474,12.9416 C94.4107474,12.6028 94.5037616,12.0806 94.5776258,11.3232 C94.4162189,11.0978 94.1795799,10.9872 93.866341,10.9872" id="Fill-6" sketch:type="MSShapeGroup"></path>
                <path d="M106.387689,0.1428 C104.305813,0.9702 101.842306,1.8774 100.172154,2.2568 C99.8862726,2.4906 99.8862726,3.1724 100.172154,3.3964 L100.862921,3.773 C101.682267,4.2182 101.682267,4.6228 101.689106,6.1432 L101.70552,22.7304 C101.709624,25.3806 101.542745,25.6844 100.085979,25.8272 L99.3008305,25.907 C98.9848559,26.1366 98.9848559,27.0046 99.3514411,27.2258 C100.769907,27.146 102.446898,27.1054 104.304446,27.104 C106.1702,27.104 107.877284,27.1418 109.172643,27.2132 C109.551539,26.9962 109.541964,26.1198 109.216414,25.8958 L108.569419,25.8132 C107.137274,25.6704 106.979971,25.3736 106.979971,22.7248 L106.974499,20.5436 C106.970396,19.8268 107.17831,19.6308 107.457352,19.6308 C107.869077,19.6308 108.19873,19.7862 108.473669,20.1992 L111.366683,24.2704 C111.689497,24.724 112.061553,25.319 112.061553,25.4814 C112.061553,25.6228 111.820811,25.697 111.415926,25.774 L110.882462,25.8958 C110.556913,26.2318 110.636248,27.0228 111.039766,27.209 C112.17235,27.132 113.642794,27.0872 116.044748,27.0872 C118.396092,27.0872 119.896629,27.1264 121.15232,27.195 C121.555838,27.0452 121.633806,26.1408 121.313727,25.8818 L120.7064,25.7614 C119.64768,25.5794 118.884416,25.3918 118.314021,24.9032 C117.296336,24.0338 113.712555,18.9098 112.984856,17.7058 C112.775574,17.4034 112.696238,17.1794 112.696238,17.0688 C112.696238,16.954 112.731803,16.8028 112.935613,16.576 C113.504641,16.0384 114.122912,15.477 115.656277,14.3864 C116.747826,13.5884 117.608207,13.216 118.37831,13.055 L119.680508,12.7932 C119.958183,12.488 119.915779,11.6634 119.509526,11.4786 C117.115779,11.8132 113.748119,12.005 111.835857,12.005 L110.861944,12.0148 C110.454323,12.1674 110.420127,12.9976 110.781241,13.335 L111.797557,13.4862 C112.164143,13.517 112.570396,13.6668 112.570396,13.8572 C112.570396,14.0882 112.369321,14.5012 111.596483,15.3594 L109.90171,17.2228 C109.0851,18.0894 108.231558,18.277 107.547631,18.277 C107.098974,18.277 106.970396,18.1692 106.970396,17.7464 L106.962189,5.908 C106.962189,3.5252 106.996385,1.9474 107.072985,0.4004 C106.918417,0.2058 106.624328,0.1428 106.387689,0.1428" id="Fill-7" sketch:type="MSShapeGroup"></path>
            </g>
        </g>
    </g>
</svg>